HIERARCHY
ROOT Hips
{
	OFFSET 0.00000 0.00000 0.00000
	CHANNELS 6 Xposition Yposition Zposition Zrotation Yrotation Xrotation 
	JOINT LHipJoint
	{
		OFFSET 0 0 0
		CHANNELS 3 Zrotation Yrotation Xrotation
		JOINT LeftUpLeg
		{
			OFFSET 1.61328 -1.70571 0.84375
			CHANNELS 3 Zrotation Yrotation Xrotation
			JOINT LeftLeg
			{
				OFFSET 2.32400 -6.38513 0.00000
				CHANNELS 3 Zrotation Yrotation Xrotation
				JOINT LeftFoot
				{
					OFFSET 2.58843 -7.11166 0.00000
					CHANNELS 3 Zrotation Yrotation Xrotation
					JOINT LeftToeBase
					{
						OFFSET 0.17200 -0.47257 2.47970
						CHANNELS 3 Zrotation Yrotation Xrotation
						End Site
						{
							OFFSET 0.00000 -0.00000 1.26912
						}
					}
				}
			}
		}
	}
	JOINT RHipJoint
	{
		OFFSET 0 0 0
		CHANNELS 3 Zrotation Yrotation Xrotation
		JOINT RightUpLeg
		{
			OFFSET -1.49930 -1.70570 0.84375
			CHANNELS 3 Zrotation Yrotation Xrotation
			JOINT RightLeg
			{
				OFFSET -2.30458 -6.33178 0.00000
				CHANNELS 3 Zrotation Yrotation Xrotation
				JOINT RightFoot
				{
					OFFSET -2.62261 -7.20556 0.00000
					CHANNELS 3 Zrotation Yrotation Xrotation
					JOINT RightToeBase
					{
						OFFSET -0.18709 -0.51403 2.51340
						CHANNELS 3 Zrotation Yrotation Xrotation
						End Site
						{
							OFFSET -0.00000 -0.00000 1.28858
						}
					}
				}
			}
		}
	}
	JOINT LowerBack
	{
		OFFSET 0 0 0
		CHANNELS 3 Zrotation Yrotation Xrotation
		JOINT Spine
		{
			OFFSET -0.03798 2.19274 -0.19881
			CHANNELS 3 Zrotation Yrotation Xrotation
			JOINT Spine1
			{
				OFFSET -0.00024 2.19460 0.05248
				CHANNELS 3 Zrotation Yrotation Xrotation
				JOINT Neck
				{
					OFFSET 0 0 0
					CHANNELS 3 Zrotation Yrotation Xrotation
					JOINT Neck1
					{
						OFFSET -0.00746 1.82323 0.17286
						CHANNELS 3 Zrotation Yrotation Xrotation
						JOINT Head
						{
							OFFSET 0.11826 1.82121 -0.27841
							CHANNELS 3 Zrotation Yrotation Xrotation
							End Site
							{
								OFFSET 0.03496 1.85543 -0.11495
							}
						}
					}
				}
				JOINT LeftShoulder
				{
					OFFSET 0 0 0
					CHANNELS 3 Zrotation Yrotation Xrotation
					JOINT LeftArm
					{
						OFFSET 3.71926 0.78840 0.25473
						CHANNELS 3 Zrotation Yrotation Xrotation
						JOINT LeftForeArm
						{
							OFFSET 5.37587 -0.00000 0.00000
							CHANNELS 3 Zrotation Yrotation Xrotation
							JOINT LeftHand
							{
								OFFSET 3.35977 -0.00000 0.00000
								CHANNELS 3 Zrotation Yrotation Xrotation
								JOINT LeftFingerBase
								{
									OFFSET 0 0 0
									CHANNELS 3 Zrotation Yrotation Xrotation
									JOINT LeftHandIndex1
									{
										OFFSET 0.56186 -0.00000 0.00000
										CHANNELS 3 Zrotation Yrotation Xrotation
										End Site
										{
											OFFSET 0.45299 -0.00000 0.00000
										}
									}
								}
								JOINT LThumb
								{
									OFFSET 0 0 0
									CHANNELS 3 Zrotation Yrotation Xrotation
									End Site
									{
										OFFSET 0.45990 -0.00000 0.45990
									}
								}
							}
						}
					}
				}
				JOINT RightShoulder
				{
					OFFSET 0 0 0
					CHANNELS 3 Zrotation Yrotation Xrotation
					JOINT RightArm
					{
						OFFSET -3.65136 0.56074 0.01624
						CHANNELS 3 Zrotation Yrotation Xrotation
						JOINT RightForeArm
						{
							OFFSET -5.22819 -0.00000 0.00000
							CHANNELS 3 Zrotation Yrotation Xrotation
							JOINT RightHand
							{
								OFFSET -3.40764 -0.00000 0.00000
								CHANNELS 3 Zrotation Yrotation Xrotation
								JOINT RightFingerBase
								{
									OFFSET 0 0 0
									CHANNELS 3 Zrotation Yrotation Xrotation
									JOINT RightHandIndex1
									{
										OFFSET -0.58325 -0.00000 0.00000
										CHANNELS 3 Zrotation Yrotation Xrotation
										End Site
										{
											OFFSET -0.47024 -0.00000 0.00000
										}
									}
								}
								JOINT RThumb
								{
									OFFSET 0 0 0
									CHANNELS 3 Zrotation Yrotation Xrotation
									End Site
									{
										OFFSET -0.47742 -0.00000 0.47742
									}
								}
							}
						}
					}
				}
			}
		}
	}
}
MOTION
Frames: 15
Frame Time: .0083333
49.1465 15.3117 -5.2458 -170.4310 -75.3759 173.3880 0.0000 0.0000 0.0000 -24.6843 2.9824 -32.2121 8.7216 16.6252 55.1221 2.3171 4.2240 -30.4999 0.0789 -1.8116 -4.9852 0.0000 0.0000 0.0000 12.1857 15.4843 -50.4290 -15.2714 -19.4553 76.0529 -0.4535 -4.7222 -15.3332 -0.4809 -4.4472 12.3382 -3.6368 1.1306 16.4493 -1.3085 -0.2723 14.1496 0.6120 -0.9345 6.0085 0.6139 2.8655 -0.8723 4.4902 4.0287 -10.1990 1.2573 1.7199 -3.2135 0.0000 -0.0000 0.0000 -69.7497 -34.1362 33.8942 109.4034 -58.5285 -76.7208 -0.0000 0.0000 -5.4786 18.0236 14.6801 4.7138 -7.1250 0.0000 -0.0000 -8.8643 45.1952 -0.0431 0.0000 -0.0000 0.0000 79.7917 3.0457 36.5195 -36.1572 45.6210 -15.6347 0.0000 -0.0000 -9.7857 -23.4775 3.3463 -1.4523 7.1250 -0.0000 -0.0000 2.3846 -26.3310 1.0803
49.1414 15.3028 -5.2306 -170.4000 -75.3298 173.4100 0.0000 0.0000 0.0000 -24.7350 2.9587 -32.3383 8.7641 16.6535 55.2705 2.3372 4.1873 -30.6054 0.0746 -1.7617 -4.8475 0.0000 0.0000 0.0000 12.4305 15.3874 -50.9614 -15.1758 -19.4326 75.7658 -0.4700 -4.5684 -15.4337 -0.4200 -4.1597 11.5263 -3.6604 1.1409 16.6092 -1.3423 -0.2819 14.1984 0.5902 -0.9452 5.9809 0.6006 2.8933 -0.7988 4.5176 4.0733 -10.3479 1.2671 1.7356 -3.2811 0.0000 0.0000 0.0000 -69.7160 -34.3316 33.8751 109.2490 -58.5526 -76.5891 -0.0000 0.0000 -5.4332 18.0519 14.6737 4.7197 -7.1250 0.0000 -0.0000 -8.8370 45.1921 -0.0422 0.0000 0.0000 0.0000 79.8117 2.9874 36.5659 -36.2281 45.6694 -15.6854 0.0000 -0.0000 -9.7954 -23.4726 3.3507 -1.4539 7.1250 -0.0000 -0.0000 2.3883 -26.3263 1.0823
49.1352 15.2945 -5.2156 -170.3790 -75.2767 173.4380 0.0000 0.0000 0.0000 -24.7869 2.9588 -32.4610 8.8041 16.6800 55.4103 2.3570 4.1373 -30.7026 0.0702 -1.7097 -4.7040 0.0000 0.0000 0.0000 12.6854 15.3100 -51.4657 -15.0545 -19.4032 75.4008 -0.4803 -4.4650 -15.4922 -0.3632 -3.8715 10.7155 -3.6856 1.1545 16.7643 -1.3756 -0.2873 14.2477 0.5692 -0.9540 5.9564 0.5797 2.9175 -0.7331 4.5524 4.1132 -10.4863 1.2808 1.7494 -3.3440 -0.0000 0.0000 0.0000 -69.6786 -34.5400 33.8562 109.0804 -58.5787 -76.4453 -0.0000 0.0000 -5.3868 18.0637 14.6720 4.7224 -7.1250 0.0000 -0.0000 -8.8257 45.1918 -0.0421 -0.0000 0.0000 0.0000 79.8260 2.9279 36.6115 -36.2911 45.7124 -15.7305 0.0000 -0.0000 -9.8119 -23.4644 3.3821 -1.4669 7.1250 -0.0000 -0.0000 2.3944 -26.2923 1.0870
49.1284 15.2869 -5.2008 -170.3620 -75.2239 173.4670 0.0000 0.0000 0.0000 -24.8383 2.9787 -32.5799 8.8417 16.7048 55.5411 2.3764 4.0659 -30.7878 0.0665 -1.6633 -4.5762 0.0000 0.0000 0.0000 12.9503 15.2439 -51.9454 -14.9091 -19.3669 74.9629 -0.4825 -4.4338 -15.4975 -0.3062 -3.5575 9.8350 -3.7102 1.1689 16.9175 -1.4085 -0.2915 14.2960 0.5483 -0.9622 5.9319 0.5566 2.9415 -0.6604 4.5888 4.1532 -10.6263 1.2954 1.7631 -3.4092 -0.0000 -0.0000 0.0000 -69.6326 -34.7592 33.8365 108.9087 -58.6050 -76.2987 -0.0000 0.0000 -5.3325 18.0571 14.6753 4.7216 -7.1250 0.0000 -0.0000 -8.8326 45.1944 -0.0427 -0.0000 -0.0000 0.0000 79.8358 2.8690 36.6572 -36.3426 45.7474 -15.7674 0.0000 -0.0000 -9.8319 -23.4480 3.3987 -1.4729 7.1250 -0.0000 -0.0000 2.4069 -26.2747 1.0936
49.1210 15.2799 -5.1865 -170.3430 -75.1739 173.4920 0.0000 0.0000 0.0000 -24.8876 3.0202 -32.6982 8.8772 16.7280 55.6643 2.3940 3.9838 -30.8565 0.0641 -1.6337 -4.4943 0.0000 0.0000 0.0000 13.2255 15.1876 -52.4027 -14.7416 -19.3237 74.4572 -0.4776 -4.4685 -15.4593 -0.2570 -3.2618 9.0085 -3.7374 1.1841 17.0688 -1.4392 -0.2950 14.3446 0.5310 -0.9703 5.9089 0.5363 2.9639 -0.5873 4.6218 4.1909 -10.7683 1.3085 1.7755 -3.4751 -0.0000 0.0000 0.0000 -69.5766 -34.9841 33.8123 108.7494 -58.6291 -76.1627 -0.0000 0.0000 -5.2639 18.0306 14.6740 4.7138 -7.1250 0.0000 -0.0000 -8.8565 45.1898 -0.0418 -0.0000 0.0000 0.0000 79.8390 2.8126 36.7031 -36.3857 45.7766 -15.7983 0.0000 -0.0000 -9.8519 -23.4228 3.4050 -1.4739 7.1250 -0.0000 -0.0000 2.4259 -26.2685 1.1027
49.1130 15.2732 -5.1728 -170.3340 -75.1220 173.5200 0.0000 0.0000 0.0000 -24.9370 3.0965 -32.8119 8.9112 16.7502 55.7825 2.4116 3.8736 -30.9133 0.0624 -1.6117 -4.4338 0.0000 0.0000 0.0000 13.5114 15.1399 -52.8305 -14.5543 -19.2736 73.8902 -0.4661 -4.5623 -15.3796 -0.2148 -2.9836 8.2331 -3.7677 1.2025 17.2250 -1.4715 -0.2953 14.3926 0.5135 -0.9770 5.8826 0.5320 2.9857 -0.5106 4.6469 4.2277 -10.9088 1.3162 1.7871 -3.5407 0.0000 0.0000 0.0000 -69.5069 -35.2160 33.7837 108.5970 -58.6520 -76.0326 -0.0000 0.0000 -5.1816 17.9886 14.6648 4.6993 -7.1250 0.0000 -0.0000 -8.8926 45.1753 -0.0388 0.0000 0.0000 0.0000 79.8412 2.7563 36.7502 -36.4178 45.7984 -15.8213 0.0000 -0.0000 -9.8715 -23.3985 3.3948 -1.4678 7.1250 -0.0000 -0.0000 2.4444 -26.2802 1.1104
49.1044 15.2666 -5.1596 -170.3360 -75.0687 173.5540 0.0000 0.0000 0.0000 -24.9872 3.2080 -32.9242 8.9445 16.7718 55.8979 2.4288 3.7361 -30.9553 0.0620 -1.6067 -4.4199 0.0000 0.0000 0.0000 13.8062 15.0982 -53.2365 -14.3500 -19.2168 73.2705 -0.4496 -4.6998 -15.2662 -0.1825 -2.7517 7.5881 -3.8035 1.2231 17.3829 -1.5033 -0.2935 14.4380 0.4993 -0.9830 5.8527 0.5271 3.0073 -0.4271 4.6723 4.2646 -11.0502 1.3239 1.7987 -3.6081 0.0000 -0.0000 0.0000 -69.4246 -35.4471 33.7507 108.4628 -58.6720 -75.9180 -0.0000 0.0000 -5.0861 17.9426 14.6420 4.6794 -7.1250 0.0000 -0.0000 -8.9292 45.1462 -0.0325 0.0000 -0.0000 0.0000 79.8368 2.6967 36.8009 -36.4428 45.8153 -15.8392 0.0000 -0.0000 -9.8889 -23.3742 3.3577 -1.4501 7.1250 -0.0000 -0.0000 2.4631 -26.3212 1.1166
49.0952 15.2600 -5.1472 -170.3620 -75.0151 173.6100 0.0000 0.0000 0.0000 -25.0407 3.3554 -33.0379 8.9774 16.7931 56.0118 2.4469 3.5587 -30.9862 0.0618 -1.6041 -4.4127 0.0000 0.0000 0.0000 14.1050 15.0594 -53.6250 -14.1314 -19.1534 72.6055 -0.4306 -4.8543 -15.1327 -0.1631 -2.6018 7.1719 -3.8469 1.2461 17.5354 -1.5378 -0.2892 14.4834 0.4862 -0.9882 5.8258 0.5287 3.0286 -0.3438 4.6972 4.3012 -11.1869 1.3304 1.8099 -3.6739 0.0000 -0.0000 0.0000 -69.3251 -35.6815 33.7114 108.3431 -58.6897 -75.8157 -0.0000 0.0000 -4.9831 17.9040 14.6004 4.6558 -7.1250 0.0000 -0.0000 -8.9545 45.0988 -0.0220 0.0000 -0.0000 0.0000 79.8347 2.6425 36.8520 -36.4539 45.8228 -15.8472 0.0000 -0.0000 -9.8973 -23.3541 3.3147 -1.4302 7.1250 -0.0000 -0.0000 2.4785 -26.3685 1.1208
49.0848 15.2532 -5.1353 -170.4240 -74.9524 173.6940 0.0000 0.0000 0.0000 -25.0993 3.5500 -33.1494 9.0098 16.8140 56.1241 2.4657 3.3435 -31.0056 0.0622 -1.6090 -4.4262 0.0000 0.0000 0.0000 14.4067 15.0311 -53.9871 -13.9010 -19.0837 71.9019 -0.4101 -5.0164 -14.9851 -0.1532 -2.5222 6.9512 -3.9016 1.2736 17.6804 -1.5741 -0.2806 14.5311 0.4766 -0.9924 5.8057 0.5230 3.0500 -0.2676 4.7247 4.3376 -11.3127 1.3390 1.8217 -3.7350 -0.0000 0.0000 0.0000 -69.2109 -35.9253 33.6608 108.2262 -58.7068 -75.7158 -0.0000 0.0000 -4.8821 17.8772 14.5466 4.6317 -7.1250 0.0000 -0.0000 -8.9660 45.0403 -0.0090 -0.0000 0.0000 0.0000 79.8279 2.5949 36.9086 -36.4548 45.8234 -15.8478 0.0000 -0.0000 -9.9018 -23.3402 3.2722 -1.4109 7.1250 -0.0000 -0.0000 2.4893 -26.4153 1.1230
49.0738 15.2465 -5.1240 -170.5110 -74.8930 173.8060 0.0000 0.0000 0.0000 -25.1612 3.7738 -33.2704 9.0427 16.8351 56.2378 2.4829 3.0990 -31.0055 0.0641 -1.6332 -4.4930 0.0000 0.0000 0.0000 14.7074 15.0013 -54.3396 -13.6611 -19.0080 71.1668 -0.3897 -5.1693 -14.8290 -0.1533 -2.5227 6.9525 -3.9661 1.2998 17.8116 -1.6100 -0.2737 14.5774 0.4731 -0.9981 5.7913 0.5073 3.0705 -0.1922 4.7545 4.3727 -11.4318 1.3502 1.8333 -3.7940 0.0000 -0.0000 0.0000 -69.0863 -36.1754 33.5984 108.1089 -58.7239 -75.6155 -0.0000 0.0000 -4.7907 17.8771 14.4865 4.6130 -7.1250 0.0000 -0.0000 -8.9516 44.9785 0.0048 0.0000 -0.0000 0.0000 79.8167 2.5552 36.9685 -36.4431 45.8155 -15.8394 0.0000 -0.0000 -9.8976 -23.3263 3.2249 -1.3896 7.1250 -0.0000 -0.0000 2.5001 -26.4670 1.1248
49.0622 15.2397 -5.1133 -170.6270 -74.8446 173.9520 0.0000 0.0000 0.0000 -25.2281 4.0164 -33.4044 9.0771 16.8571 56.3564 2.4975 2.8348 -30.9832 0.0675 -1.6762 -4.6116 0.0000 0.0000 0.0000 15.0032 14.9625 -54.6882 -13.4143 -18.9267 70.4076 -0.3682 -5.3188 -14.6550 -0.1574 -2.5562 7.0455 -4.0406 1.3220 17.9266 -1.6468 -0.2722 14.6257 0.4746 -1.0073 5.7880 0.4859 3.0898 -0.1310 4.7846 4.4054 -11.5359 1.3627 1.8447 -3.8453 0.0000 0.0000 0.0000 -68.9466 -36.4403 33.5194 107.9825 -58.7422 -75.5075 -0.0000 0.0000 -4.7178 17.8984 14.4216 4.5987 -7.1250 0.0000 -0.0000 -8.9167 44.9143 0.0190 0.0000 0.0000 0.0000 79.8023 2.5325 37.0325 -36.4184 45.7988 -15.8217 0.0000 -0.0000 -9.8866 -23.3144 3.2110 -1.3828 7.1250 -0.0000 -0.0000 2.5093 -26.4823 1.1281
49.0506 15.2323 -5.1032 -170.7660 -74.8226 174.1340 0.0000 0.0000 0.0000 -25.2997 4.2532 -33.5634 9.1148 16.8810 56.4864 2.5084 2.5536 -30.9344 0.0729 -1.7414 -4.7916 0.0000 0.0000 0.0000 15.2879 14.9051 -55.0519 -13.1637 -18.8405 69.6331 -0.3437 -5.4774 -14.4445 -0.1599 -2.5762 7.1011 -4.1209 1.3339 18.0233 -1.6844 -0.2828 14.6718 0.4797 -1.0226 5.7924 0.4637 3.1085 -0.0775 4.8126 4.4366 -11.6314 1.3748 1.8558 -3.8921 0.0000 0.0000 0.0000 -68.7872 -36.7206 33.4244 107.8474 -58.7615 -75.3920 -0.0000 0.0000 -4.6698 17.9439 14.3727 4.5959 -7.1250 0.0000 -0.0000 -8.8637 44.8695 0.0288 0.0000 0.0000 0.0000 79.7849 2.5239 37.1018 -36.3846 45.7759 -15.7974 0.0000 -0.0000 -9.8739 -23.2996 3.1946 -1.3748 7.1250 -0.0000 -0.0000 2.5206 -26.5006 1.1321
49.0390 15.2243 -5.0937 -170.9100 -74.8296 174.3340 0.0000 0.0000 0.0000 -25.3721 4.4769 -33.7459 9.1569 16.9076 56.6312 2.5156 2.2613 -30.8619 0.0805 -1.8298 -5.0355 0.0000 0.0000 0.0000 15.5643 14.8292 -55.4306 -12.9104 -18.7496 68.8470 -0.3170 -5.6392 -14.2016 -0.1641 -2.6101 7.1950 -4.1987 1.3340 18.1017 -1.7220 -0.3060 14.7156 0.4851 -1.0435 5.8042 0.4379 3.1266 -0.0297 4.8389 4.4663 -11.7227 1.3870 1.8666 -3.9364 -0.0000 0.0000 0.0000 -68.6087 -37.0125 33.3170 107.7084 -58.7813 -75.2732 -0.0000 0.0000 -4.6478 17.9988 14.3407 4.6008 -7.1250 0.0000 -0.0000 -8.8061 44.8430 0.0344 -0.0000 0.0000 0.0000 79.7654 2.5283 37.1708 -36.3421 45.7470 -15.7671 0.0000 -0.0000 -9.8593 -23.2794 3.1808 -1.3676 7.1250 -0.0000 -0.0000 2.5361 -26.5160 1.1381
49.0269 15.2157 -5.0847 -171.0670 -74.8600 174.5510 0.0000 0.0000 0.0000 -25.4478 4.6939 -33.9381 9.2035 16.9369 56.7914 2.5207 1.9528 -30.7737 0.0891 -1.9254 -5.2994 0.0000 0.0000 0.0000 15.8334 14.7352 -55.8092 -12.6556 -18.6543 68.0524 -0.2880 -5.8035 -13.9219 -0.1708 -2.6622 7.3398 -4.2717 1.3256 18.1710 -1.7611 -0.3386 14.7594 0.4873 -1.0684 5.8209 0.4124 3.1432 0.0132 4.8642 4.4937 -11.8080 1.3989 1.8766 -3.9777 -0.0000 -0.0000 0.0000 -68.4161 -37.3219 33.2006 107.5553 -58.8029 -75.1423 -0.0000 0.0000 -4.6499 18.0528 14.3274 4.6114 -7.1250 0.0000 -0.0000 -8.7538 44.8357 0.0358 -0.0000 -0.0000 0.0000 79.7472 2.5417 37.2338 -36.2948 45.7149 -15.7332 0.0000 -0.0000 -9.8417 -23.2583 3.1673 -1.3604 7.1250 -0.0000 -0.0000 2.5523 -26.5313 1.1445
49.0138 15.2067 -5.0760 -171.2350 -74.8999 174.7690 0.0000 0.0000 0.0000 -25.5252 4.9153 -34.1248 9.2541 16.9685 56.9647 2.5247 1.6268 -30.6758 0.0981 -2.0195 -5.5597 0.0000 0.0000 0.0000 16.1023 14.6303 -56.1699 -12.3996 -18.5545 67.2499 -0.2560 -5.9799 -13.5999 -0.1780 -2.7176 7.4936 -4.3334 1.3136 18.2374 -1.8026 -0.3743 14.8047 0.4809 -1.0939 5.8410 0.3809 3.1569 0.0616 4.8925 4.5177 -11.8969 1.4130 1.8848 -4.0216 -0.0000 -0.0000 0.0000 -68.2118 -37.6385 33.0804 107.4009 -58.8244 -75.0102 -0.0000 0.0000 -4.6704 18.0967 14.3326 4.6249 -7.1250 0.0000 -0.0000 -8.7149 44.8463 0.0333 -0.0000 -0.0000 0.0000 79.7321 2.5555 37.2835 -36.2494 45.6840 -15.7007 0.0000 -0.0000 -9.8203 -23.2331 3.1509 -1.3517 7.1250 -0.0000 -0.0000 2.5716 -26.5497 1.1521
